<?xml version="1.0" standalone="no"?>
<!DOCTYPE svg PUBLIC "-//W3C//DTD SVG 20010904//EN"
 "http://www.w3.org/TR/2001/REC-SVG-20010904/DTD/svg10.dtd">
<svg version="1.0" xmlns="http://www.w3.org/2000/svg"
 width="704.000000pt" height="704.000000pt" viewBox="0 0 704.000000 704.000000"
 preserveAspectRatio="xMidYMid meet">
<metadata>
Created by potrace 1.14, written by Peter Selinger 2001-2017
</metadata>
<g transform="translate(0.000000,704.000000) scale(0.100000,-0.100000)"
fill="#000000" stroke="none">
<path d="M561 6708 c-12 -4 -21 -6 -21 -4 0 10 -136 -45 -186 -75 -154 -91
-272 -277 -290 -454 -3 -33 -7 -72 -8 -86 -5 -48 15 -163 40 -234 21 -61 85
-180 104 -195 4 -3 43 -54 88 -115 45 -60 86 -115 91 -121 4 -6 46 -62 92
-125 46 -63 127 -171 179 -241 52 -70 142 -191 200 -269 58 -78 111 -148 118
-155 6 -7 12 -15 12 -18 0 -4 139 -193 178 -241 4 -5 18 -26 32 -45 13 -19 27
-37 30 -40 3 -3 37 -48 75 -100 38 -52 74 -100 80 -107 5 -7 28 -37 50 -68 22
-31 58 -80 80 -108 22 -29 69 -92 105 -142 73 -102 70 -98 110 -145 16 -19 30
-41 30 -47 0 -7 3 -13 8 -13 4 0 13 -9 20 -20 13 -21 4 -41 -45 -100 -7 -8
-62 -82 -123 -165 -61 -82 -116 -157 -123 -165 -6 -8 -30 -40 -52 -70 -21 -30
-42 -57 -45 -60 -3 -3 -21 -27 -40 -55 -34 -49 -54 -75 -75 -99 -6 -6 -21 -28
-34 -48 -12 -21 -27 -38 -32 -38 -5 0 -9 -7 -9 -15 0 -8 -4 -15 -10 -15 -5 0
-10 -5 -10 -11 0 -6 -6 -16 -13 -23 -6 -7 -20 -24 -30 -37 -9 -13 -62 -85
-117 -159 -55 -74 -113 -152 -128 -173 -15 -21 -34 -46 -43 -57 -8 -10 -23
-29 -32 -42 -88 -120 -174 -235 -184 -246 -7 -7 -13 -16 -13 -20 0 -4 -12 -20
-26 -37 -15 -16 -34 -41 -43 -55 -9 -14 -22 -32 -28 -40 -7 -8 -55 -73 -108
-145 -52 -71 -104 -141 -115 -155 -11 -14 -30 -38 -42 -55 -12 -16 -25 -32
-28 -35 -20 -19 -95 -139 -116 -186 -77 -174 -75 -386 5 -556 56 -119 95 -167
186 -233 61 -44 154 -92 190 -99 11 -3 40 -9 65 -15 25 -5 88 -9 140 -7 127 5
207 32 320 108 78 53 88 63 160 158 35 47 68 86 72 88 4 2 8 8 8 13 0 5 8 18
18 28 9 11 33 41 52 68 19 26 37 50 40 53 6 5 103 131 135 176 11 15 25 32 30
38 10 11 62 80 100 132 11 15 25 32 30 38 6 6 30 38 54 71 25 33 56 74 70 91
14 17 34 42 43 55 16 23 196 257 221 289 7 8 55 71 106 140 52 69 113 148 135
176 23 28 50 64 60 78 11 15 27 36 35 47 40 49 155 199 260 339 31 41 59 77
62 80 3 3 31 39 62 80 31 41 79 104 107 140 28 36 58 76 68 90 9 14 19 27 22
30 4 3 34 42 69 88 34 45 80 102 103 125 32 34 77 102 83 127 1 3 7 18 13 33
54 130 38 339 -38 489 -31 60 -66 114 -86 133 -6 5 -24 28 -40 50 -16 22 -31
42 -34 45 -3 3 -25 32 -50 65 -25 33 -47 62 -50 65 -3 3 -48 61 -100 130 -52
69 -100 132 -107 140 -7 8 -39 51 -72 95 -33 44 -64 85 -68 90 -5 6 -31 39
-58 75 -27 36 -52 67 -55 70 -3 3 -25 32 -49 65 -25 33 -48 62 -53 63 -4 2 -8
10 -8 17 0 7 -4 15 -8 17 -4 2 -30 32 -57 68 -27 36 -54 70 -60 76 -5 7 -18
22 -27 35 -9 13 -59 79 -110 146 -51 67 -127 166 -168 220 -41 54 -114 149
-162 211 -49 62 -88 116 -88 121 0 5 -4 11 -8 13 -5 2 -38 41 -73 88 -35 47
-66 87 -70 90 -3 3 -25 32 -50 65 -24 33 -48 65 -54 71 -5 6 -19 23 -30 38
-25 35 -72 98 -83 111 -4 6 -46 60 -92 120 -45 61 -99 127 -119 148 -78 83
-213 156 -331 177 -63 11 -187 10 -219 -2z"/>
<path d="M6220 6696 c-67 -19 -99 -34 -190 -87 -35 -20 -107 -94 -160 -164
-25 -33 -47 -62 -50 -65 -3 -3 -48 -61 -99 -130 -52 -69 -97 -127 -100 -130
-3 -3 -35 -45 -71 -93 -36 -49 -80 -105 -97 -125 -18 -21 -33 -43 -33 -49 0
-7 -3 -13 -8 -13 -4 0 -28 -28 -52 -62 -25 -34 -50 -66 -55 -72 -6 -6 -22 -27
-35 -46 -13 -19 -27 -37 -30 -40 -3 -3 -57 -72 -119 -155 -63 -82 -119 -154
-125 -160 -6 -5 -27 -32 -46 -60 -19 -27 -45 -61 -57 -75 -13 -14 -23 -28 -23
-31 0 -3 -10 -17 -22 -31 -13 -14 -30 -35 -38 -47 -8 -12 -23 -32 -32 -44 -10
-12 -60 -78 -113 -147 -53 -69 -104 -136 -115 -150 -32 -41 -209 -273 -228
-299 -9 -13 -21 -28 -27 -35 -5 -6 -30 -38 -55 -71 -25 -33 -49 -65 -55 -71
-5 -6 -19 -23 -30 -38 -25 -34 -241 -317 -254 -332 -5 -6 -17 -26 -26 -45 -10
-19 -21 -36 -25 -39 -3 -3 -19 -43 -34 -90 -67 -205 -27 -426 102 -566 58 -62
93 -107 310 -394 48 -63 92 -122 99 -130 7 -8 48 -62 92 -120 44 -58 84 -109
89 -115 10 -13 207 -271 235 -309 12 -16 40 -52 62 -80 22 -28 54 -69 70 -91
16 -22 35 -47 42 -55 22 -27 203 -264 221 -289 9 -13 25 -32 35 -43 9 -10 17
-22 17 -27 0 -5 3 -11 8 -13 4 -2 24 -25 44 -53 21 -27 41 -54 46 -60 4 -5 33
-44 65 -85 31 -41 61 -80 66 -86 6 -7 40 -52 77 -100 64 -84 189 -247 206
-269 4 -5 27 -35 50 -65 23 -30 45 -57 50 -58 4 -2 8 -10 8 -17 0 -8 8 -20 18
-27 11 -7 21 -18 23 -24 11 -30 106 -136 162 -181 42 -34 152 -85 218 -102 73
-19 211 -23 284 -7 110 23 272 123 339 208 133 170 178 418 112 618 -29 87
-76 179 -101 200 -8 7 -15 17 -15 23 0 5 -8 17 -17 26 -10 9 -34 39 -52 66
-19 28 -38 52 -41 55 -3 3 -17 21 -30 40 -13 19 -27 37 -30 40 -3 3 -37 48
-75 100 -38 52 -73 100 -77 105 -5 6 -72 96 -149 200 -77 105 -150 203 -162
219 -12 16 -71 94 -130 175 -59 80 -116 157 -127 171 -11 14 -38 50 -60 80
-22 30 -51 68 -65 85 -14 16 -25 33 -25 37 0 5 -11 21 -24 36 -13 15 -71 90
-127 167 -57 77 -109 146 -116 153 -7 7 -13 16 -13 20 0 4 -14 22 -30 41 -17
18 -30 37 -30 40 0 4 -8 16 -17 27 -39 44 -83 103 -83 113 0 5 -3 11 -8 13 -4
2 -29 31 -55 65 l-47 63 83 110 c45 60 125 167 177 237 52 71 98 130 102 131
5 2 8 7 8 12 0 7 244 340 308 420 16 19 37 49 48 65 10 17 23 35 29 41 6 6 31
39 55 72 25 34 92 124 148 200 57 75 115 153 128 172 13 19 46 64 73 100 28
36 65 85 83 110 18 25 36 49 41 55 4 5 39 53 78 105 38 52 78 106 88 120 109
147 155 206 162 208 5 2 9 8 9 14 0 5 9 22 19 36 21 30 69 143 77 182 25 125
27 236 4 320 -7 25 -13 50 -15 55 -17 74 -118 241 -161 268 -7 4 -19 13 -26
20 -21 21 -100 71 -143 91 -122 57 -285 70 -415 32z"/>
</g>
</svg>
